<?xml version="1.0" encoding="UTF-8" standalone="yes"?>
<svg width="647" height="317" viewBox="0 0 647 317" fill="none" xmlns="http://www.w3.org/2000/svg">
  <path d="M90.56 316.16C69.0133 316.16 50.9867 311.893 36.48 303.36C18.3467 292.907 9.28 277.76 9.28 257.92C9.28 237.867 18.24 220.053 36.16 204.48C53.0133 189.547 71.68 182.08 92.16 182.08C100.907 182.08 105.28 182.933 105.28 184.64C105.28 185.493 102.08 185.813 95.68 185.6C74.9867 185.6 57.8133 191.787 44.16 204.16C29.6533 217.387 22.4 234.027 22.4 254.08C22.4 272 28.3733 286.293 40.32 296.96C52.2667 307.627 67.4133 312.96 85.76 312.96C101.12 312.96 118.4 309.227 137.6 301.76C171.093 288.107 187.84 267.093 187.84 238.72C187.84 222.08 180.16 207.893 164.8 196.16L122.24 168.64C107.093 157.333 99.52 144.747 99.52 130.88C99.52 120.853 103.147 111.893 110.4 104C103.573 104.64 97.92 107.947 93.44 113.92C88.96 119.68 86.72 126.08 86.72 133.12C86.72 148.053 93.5467 161.067 107.2 172.16L146.56 199.04C161.067 210.133 169.067 222.933 170.56 237.44C174.827 233.173 178.133 231.04 180.48 231.04C182.187 231.04 183.04 232.32 183.04 234.88C183.04 242.347 177.813 250.347 167.36 258.88C162.667 271.253 153.28 282.453 139.2 292.48C125.547 302.293 112 307.2 98.56 307.2C97.4933 307.2 96.96 306.88 96.96 306.24C96.96 304.96 97.8133 304.32 99.52 304.32L111.68 302.4C121.707 299.627 131.2 294.507 140.16 287.04C149.12 279.36 155.733 270.827 160 261.44C155.733 256.533 153.6 250.773 153.6 244.16C153.6 236.907 155.413 233.28 159.04 233.28C160.747 233.28 162.347 234.027 163.84 235.52C162.987 228.693 160.533 222.187 156.48 216C152.64 209.813 147.093 204.267 139.84 199.36L102.08 173.44C88.8533 162.133 82.24 148.8 82.24 133.44C82.24 124.907 85.0133 117.547 90.56 111.36C96.32 104.96 103.467 101.76 112 101.76H112.64C128.427 86.6133 149.653 79.04 176.32 79.04C199.36 79.04 215.36 84.2667 224.32 94.72C227.52 98.1333 229.12 101.973 229.12 106.24C229.12 113.493 224.427 118.933 215.04 122.56C208.427 125.12 200.64 126.4 191.68 126.4C187.413 126.4 182.933 126.08 178.24 125.44C173.547 124.8 168.533 123.947 163.2 122.88C151.04 119.893 142.293 116.373 136.96 112.32C136.533 111.893 136.32 111.573 136.32 111.36C136.32 110.72 136.64 110.4 137.28 110.4C137.92 110.4 138.347 110.507 138.56 110.72C151.147 118.827 168.533 122.88 190.72 122.88C197.76 122.88 204.16 121.707 209.92 119.36C217.387 116.373 221.12 111.893 221.12 105.92C221.12 97.8133 215.253 91.7333 203.52 87.68C194.56 84.6933 185.493 83.2 176.32 83.2C148.373 83.2 129.28 92.16 119.04 110.08C115.627 115.627 113.92 121.707 113.92 128.32C113.92 141.547 121.493 153.493 136.64 164.16L178.88 191.04C194.027 203.627 201.6 219.093 201.6 237.44C201.6 262.187 188.8 282.133 163.2 297.28C141.653 309.867 117.44 316.16 90.56 316.16Z" fill="#1A5478"/>
  <path d="M280.328 98.992L276.5 108.968C272.711 106.957 268.573 105.952 264.088 105.952C259.603 105.952 255.968 106.764 253.184 108.388C250.477 110.012 249.124 112.564 249.124 116.044C249.124 120.297 252.681 125.131 259.796 130.544C262.735 132.787 265.673 135.107 268.612 137.504C271.551 139.824 274.064 142.531 276.152 145.624C278.24 148.64 279.284 151.501 279.284 154.208C279.284 156.915 278.82 159.389 277.892 161.632C277.041 163.797 275.572 166.04 273.484 168.36C271.396 170.68 268.148 172.575 263.74 174.044C259.332 175.513 254.383 176.248 248.892 176.248C243.401 176.248 238.529 175.591 234.276 174.276C233.425 172.961 233 171.801 233 170.796C233 169.791 233.039 169.288 233.116 169.288C233.271 169.288 233.851 169.443 234.856 169.752C238.027 170.603 241.197 171.028 244.368 171.028C250.864 171.028 256.123 169.713 260.144 167.084C264.243 164.455 266.292 161.091 266.292 156.992C266.292 152.352 262.967 147.364 256.316 142.028C253.532 139.785 250.748 137.543 247.964 135.3C241.313 129.964 237.988 124.744 237.988 119.64C237.988 116.392 239.341 113.221 242.048 110.128C248.003 103.245 260.105 98.528 278.356 95.976L280.328 98.992ZM362.743 176.596C362.743 176.828 362.434 176.944 361.815 176.944C359.805 176.944 358.297 176.364 357.291 175.204C353.27 154.865 351.259 137.427 351.259 122.888C351.259 119.099 351.375 115.348 351.607 111.636C342.714 132.284 336.566 151.733 333.163 169.984L334.555 175.204L332.003 177.06L320.983 172.304C318.973 153.821 314.449 133.367 307.411 110.94C306.715 122.153 305.633 134.024 304.163 146.552C302.694 159.003 301.186 168.167 299.639 174.044C299.021 174.663 298.093 175.165 296.855 175.552C295.618 176.016 294.613 176.248 293.839 176.248C293.066 176.248 292.679 176.093 292.679 175.784L293.491 171.956C294.033 169.404 294.613 164.996 295.231 158.732C295.85 152.468 296.159 145.972 296.159 139.244C296.159 126.329 295.347 114.691 293.723 104.328L292.911 99.224L304.859 94.468L307.875 96.324C314.99 112.409 321.718 130.931 328.059 151.888C333.318 137.736 341.747 119.331 353.347 96.672C353.425 96.5173 353.463 96.4013 353.463 96.324L356.479 94.468L366.339 99.224C362.782 108.349 361.003 122.385 361.003 141.332C361.003 155.407 361.583 167.161 362.743 176.596ZM399.253 175.204C398.171 176.287 396.508 176.828 394.265 176.828C393.724 176.828 393.453 176.712 393.453 176.48C395.155 166.195 396.005 155.213 396.005 143.536C396.005 131.781 395.541 120.684 394.613 110.244C393.299 110.321 390.94 110.36 387.537 110.36C384.212 110.36 380.461 110.012 376.285 109.316L374.429 106.3L378.837 96.324C383.709 98.9533 390.553 100.268 399.369 100.268C408.263 100.268 416.885 99.224 425.237 97.136C425.547 97.136 425.701 97.7933 425.701 99.108C425.701 100.423 425.121 101.583 423.961 102.588C417.775 105.217 411.859 107.189 406.213 108.504C404.821 140.365 402.501 162.599 399.253 175.204Z" fill="#1A5478"/>
  <path d="M273.854 217.907C273.568 219.375 272.87 220.826 271.76 222.258C270.686 223.654 269.468 224.854 268.107 225.856C267.928 226.035 267.57 226.232 267.033 226.447C266.532 226.662 265.977 226.895 265.368 227.146C264.795 227.36 264.222 227.557 263.649 227.736C263.076 227.915 262.629 228.023 262.307 228.059C262.02 228.13 261.787 228.112 261.608 228.005C261.465 227.897 261.322 227.772 261.179 227.629C261.035 227.486 260.856 227.36 260.642 227.253C260.463 227.11 260.194 227.038 259.836 227.038C259.406 227.038 259.138 226.949 259.03 226.77C258.959 226.555 259.012 226.179 259.191 225.642C259.263 225.463 259.388 225.212 259.567 224.89C259.746 224.567 260.033 224.156 260.427 223.654C260.713 223.332 260.946 222.974 261.125 222.58C261.34 222.186 261.376 221.828 261.232 221.506C261.125 221.148 260.785 220.861 260.212 220.646C259.639 220.432 258.744 220.324 257.526 220.324C256.273 220.324 254.662 220.485 252.692 220.808C250.544 221.094 248.306 221.631 245.979 222.419C243.687 223.207 241.449 224.12 239.265 225.158C237.116 226.197 235.129 227.307 233.303 228.488C231.477 229.67 229.973 230.834 228.791 231.979C227.645 233.09 226.911 234.146 226.589 235.148C226.267 236.115 226.535 236.903 227.395 237.512C228.146 238.049 229.292 238.514 230.832 238.908C232.372 239.266 234.144 239.606 236.149 239.929C238.155 240.215 240.303 240.537 242.595 240.896C244.886 241.218 247.16 241.612 249.416 242.077C251.708 242.543 253.874 243.116 255.915 243.796C257.992 244.476 259.818 245.318 261.394 246.32C262.504 247.072 263.435 247.788 264.187 248.469C264.938 249.149 265.547 249.829 266.013 250.51C266.478 251.154 266.854 251.799 267.141 252.443C267.427 253.052 267.678 253.679 267.893 254.323C268.036 254.717 268.286 255.165 268.645 255.666C269.038 256.132 269.45 256.704 269.88 257.385C270.31 258.065 270.703 258.853 271.062 259.748C271.42 260.607 271.652 261.628 271.76 262.81C271.903 265.173 271.42 267.411 270.31 269.523C269.235 271.636 267.821 273.588 266.066 275.378C264.348 277.168 262.432 278.78 260.319 280.212C258.207 281.608 256.184 282.772 254.25 283.703C252.567 284.527 250.777 285.297 248.879 286.013C246.981 286.729 245.03 287.355 243.024 287.893C241.019 288.394 238.978 288.788 236.901 289.074C234.86 289.396 232.837 289.558 230.832 289.558C227.502 289.558 224.369 289.092 221.433 288.161C218.532 287.266 216.008 285.744 213.859 283.596C212.821 282.486 212.069 281.376 211.604 280.266C211.138 279.12 210.905 277.992 210.905 276.882C210.905 275.557 211.174 274.268 211.711 273.015C212.248 271.761 212.946 270.58 213.806 269.47C214.665 268.36 215.614 267.375 216.652 266.516C217.691 265.62 218.711 264.904 219.714 264.367C221.11 263.579 222.561 262.827 224.064 262.111C225.604 261.359 227.144 260.697 228.684 260.124C230.223 259.515 231.763 259.014 233.303 258.62C234.842 258.226 236.328 257.976 237.761 257.868C238.369 257.797 239.139 257.725 240.07 257.653C241.001 257.582 241.879 257.546 242.702 257.546C243.239 257.546 243.687 257.689 244.045 257.976C244.403 258.262 244.546 258.513 244.475 258.728C244.296 259.121 243.973 259.318 243.508 259.318C243.078 259.318 242.559 259.39 241.95 259.533C241.27 259.712 240.59 259.838 239.909 259.909C239.229 259.981 238.62 260.106 238.083 260.285C234.001 261.216 230.546 262.398 227.717 263.83C224.924 265.262 222.686 266.713 221.003 268.181C219.356 269.649 218.228 271.045 217.619 272.37C217.01 273.659 216.831 274.644 217.082 275.324C217.44 276.291 218.103 277.043 219.069 277.58C220.036 278.117 221.128 278.511 222.346 278.762C223.563 278.977 224.799 279.102 226.052 279.138C227.305 279.174 228.379 279.156 229.274 279.084C231.351 278.977 233.661 278.672 236.203 278.171C238.781 277.67 241.377 277.007 243.991 276.184C246.641 275.36 249.219 274.393 251.726 273.283C254.232 272.137 256.452 270.902 258.386 269.577C260.319 268.216 261.877 266.766 263.059 265.227C264.24 263.651 264.831 262.004 264.831 260.285C264.831 259.712 264.742 259.157 264.562 258.62C264.419 258.047 264.204 257.456 263.918 256.848C263.381 255.809 262.36 254.932 260.856 254.216C259.353 253.464 257.544 252.837 255.432 252.336C253.355 251.799 251.081 251.333 248.61 250.939C246.175 250.51 243.758 250.08 241.359 249.65C238.996 249.221 236.74 248.737 234.592 248.2C232.443 247.663 230.635 247.001 229.167 246.213C227.52 245.318 226.302 244.44 225.515 243.581C224.763 242.686 224.333 241.576 224.226 240.251C224.19 240.108 224.082 239.857 223.903 239.499C223.724 239.141 223.509 238.765 223.259 238.371C223.044 237.977 222.829 237.601 222.614 237.243C222.399 236.885 222.238 236.599 222.131 236.384C221.558 235.345 221.271 234.217 221.271 233C221.271 231.639 221.576 230.243 222.185 228.811C222.829 227.378 223.617 226.143 224.548 225.104C226.267 223.135 228.522 221.309 231.315 219.626C234.144 217.943 237.224 216.475 240.554 215.222C243.884 213.968 247.303 212.966 250.812 212.214C254.357 211.426 257.705 210.979 260.856 210.871C262.146 210.835 263.596 210.925 265.207 211.14C266.818 211.354 268.304 211.748 269.665 212.321C271.062 212.858 272.172 213.592 272.995 214.523C273.819 215.419 274.105 216.547 273.854 217.907ZM317.736 265.334C317.736 269.094 317.181 272.478 316.071 275.485C314.997 278.493 313.511 281.053 311.613 283.166C309.751 285.279 307.585 286.908 305.114 288.054C302.644 289.2 300.03 289.772 297.272 289.772C296.127 289.772 294.873 289.629 293.513 289.343C292.152 289.092 290.791 288.662 289.431 288.054C288.07 287.445 286.745 286.639 285.456 285.637C284.167 284.634 283.021 283.399 282.019 281.931C281.016 280.463 280.21 278.744 279.602 276.774C279.029 274.805 278.76 272.531 278.796 269.953C278.796 267.017 279.154 264.349 279.87 261.95C280.586 259.515 281.499 257.349 282.609 255.451C283.755 253.518 285.044 251.853 286.477 250.456C287.909 249.06 289.341 247.896 290.773 246.965C292.206 245.998 293.584 245.282 294.909 244.816C296.234 244.351 297.38 244.082 298.347 244.011C298.848 243.975 299.063 244.029 298.991 244.172C298.955 244.315 298.83 244.476 298.615 244.655C298.4 244.834 298.203 245.013 298.024 245.192C297.881 245.371 297.953 245.479 298.239 245.515C298.49 245.586 298.687 245.658 298.83 245.729C299.009 245.801 299.188 245.891 299.367 245.998L299.797 245.515C300.048 245.336 300.28 245.246 300.495 245.246C300.746 245.246 300.961 245.282 301.14 245.354C301.319 245.389 301.462 245.407 301.569 245.407C301.677 245.407 301.748 245.3 301.784 245.085C301.856 244.691 301.981 244.476 302.16 244.44C302.375 244.369 302.84 244.333 303.557 244.333C303.986 244.333 304.631 244.458 305.49 244.709C306.385 244.96 307.352 245.389 308.391 245.998C309.465 246.607 310.539 247.43 311.613 248.469C312.723 249.471 313.726 250.76 314.621 252.336C315.552 253.876 316.304 255.72 316.877 257.868C317.45 260.017 317.736 262.505 317.736 265.334ZM298.347 249.597C297.093 250.349 295.858 251.369 294.641 252.658C293.423 253.947 292.313 255.433 291.311 257.116C290.344 258.799 289.556 260.679 288.947 262.756C288.339 264.833 288.034 267.017 288.034 269.309C288.034 271.779 288.249 274.017 288.679 276.022C289.144 278.028 289.807 279.746 290.666 281.179C291.525 282.575 292.564 283.667 293.781 284.455C295.035 285.207 296.449 285.583 298.024 285.583C299.421 285.583 300.799 285.189 302.16 284.401C303.557 283.614 304.792 282.432 305.866 280.856C306.94 279.281 307.8 277.329 308.444 275.002C309.125 272.674 309.465 269.971 309.465 266.892C309.465 263.776 309.053 261.162 308.229 259.05C307.406 256.937 306.475 255.236 305.437 253.947C304.434 252.622 303.467 251.691 302.536 251.154C301.605 250.581 301.032 250.295 300.817 250.295C300.316 250.295 299.922 250.295 299.636 250.295C299.385 250.295 298.955 250.062 298.347 249.597ZM336.105 216.296C336.105 216.797 336.07 217.782 335.998 219.25C335.926 220.718 335.837 222.491 335.729 224.567C335.622 226.608 335.497 228.864 335.354 231.335C335.246 233.77 335.121 236.223 334.978 238.693C334.834 241.128 334.709 243.492 334.602 245.783C334.494 248.075 334.423 250.08 334.387 251.799C334.315 252.837 334.261 253.983 334.226 255.236C334.226 256.49 334.226 257.832 334.226 259.265C334.226 261.162 334.226 263.15 334.226 265.227C334.261 267.268 334.297 269.291 334.333 271.296C334.369 273.301 334.405 275.235 334.44 277.097C334.512 278.923 334.566 280.57 334.602 282.038C334.637 283.506 334.655 284.742 334.655 285.744C334.691 286.711 334.709 287.32 334.709 287.57C334.709 288.072 334.619 288.448 334.44 288.698C334.297 288.985 334.1 289.164 333.85 289.235C333.635 289.343 333.402 289.361 333.151 289.289C332.901 289.253 332.686 289.182 332.507 289.074C332.292 288.967 332.113 288.841 331.97 288.698C331.862 288.555 331.773 288.448 331.701 288.376C331.63 288.304 331.558 288.286 331.486 288.322C331.451 288.358 331.415 288.501 331.379 288.752C331.271 289.683 331.057 290.381 330.734 290.847C330.448 291.312 330.126 291.617 329.768 291.76C329.445 291.939 329.141 291.993 328.854 291.921C328.568 291.849 328.389 291.724 328.317 291.545C328.246 291.366 328.12 291.258 327.941 291.223C327.798 291.187 327.637 291.151 327.458 291.115C327.279 291.115 327.1 291.062 326.921 290.954C326.778 290.882 326.688 290.703 326.652 290.417C326.366 289.2 326.187 287.66 326.115 285.798C326.044 283.9 326.008 281.77 326.008 279.406C326.008 277.365 326.026 275.163 326.062 272.8C326.097 270.437 326.115 268.02 326.115 265.549C326.115 264.117 326.115 262.702 326.115 261.306C326.115 259.873 326.079 258.423 326.008 256.955V253.571C326.008 250.671 326.079 247.771 326.223 244.87C326.366 241.934 326.545 239.123 326.76 236.438C326.975 233.752 327.207 231.228 327.458 228.864C327.709 226.501 327.924 224.406 328.103 222.58C328.282 220.754 328.425 219.268 328.532 218.122C328.64 216.976 328.675 216.26 328.64 215.974C328.604 215.723 328.622 215.544 328.693 215.437C328.801 215.329 328.926 215.275 329.069 215.275C329.248 215.24 329.427 215.222 329.606 215.222C329.785 215.186 329.947 215.132 330.09 215.061C330.34 214.917 330.537 214.882 330.681 214.953C330.86 214.989 331.003 215.061 331.11 215.168C331.218 215.275 331.307 215.401 331.379 215.544C331.486 215.651 331.63 215.705 331.809 215.705C332.023 215.669 332.185 215.616 332.292 215.544C332.435 215.437 332.543 215.347 332.614 215.275C332.722 215.168 332.811 215.078 332.883 215.007C332.99 214.935 333.116 214.917 333.259 214.953C333.545 215.025 333.814 215.078 334.064 215.114C334.351 215.114 334.494 215.061 334.494 214.953C334.566 214.667 334.673 214.541 334.816 214.577C334.96 214.577 335.139 214.667 335.354 214.846C335.568 215.025 335.747 215.222 335.891 215.437C336.034 215.616 336.105 215.902 336.105 216.296ZM377.248 287.678C377.248 288 376.979 288.394 376.442 288.859C375.905 289.325 375.225 289.558 374.401 289.558C374.151 289.558 373.685 289.432 373.005 289.182C372.36 288.931 371.68 288.555 370.964 288.054C370.248 287.588 369.603 287.015 369.03 286.335C368.457 285.619 368.153 284.813 368.117 283.918C368.046 283.524 368.01 282.987 368.01 282.307C368.01 281.59 368.01 280.767 368.01 279.836C368.01 278.404 368.01 276.81 368.01 275.056C368.01 273.301 368.046 271.529 368.117 269.738C367.867 271.027 367.562 272.37 367.204 273.767C366.846 275.127 366.398 276.488 365.861 277.849C365.324 279.209 364.698 280.552 363.981 281.877C363.265 283.202 362.442 284.473 361.511 285.69C361.009 286.335 360.472 286.89 359.899 287.355C359.362 287.785 358.825 288.143 358.288 288.43C357.751 288.752 357.25 288.985 356.784 289.128C356.319 289.271 355.961 289.343 355.71 289.343C355.567 289.343 355.227 289.182 354.689 288.859C354.188 288.573 353.579 288.197 352.863 287.731C352.183 287.23 351.449 286.693 350.661 286.12C349.873 285.511 349.121 284.921 348.405 284.348C347.689 283.739 347.045 283.184 346.472 282.683C345.899 282.146 345.487 281.716 345.236 281.394C344.986 281.035 344.753 280.427 344.538 279.567C344.359 278.708 344.198 277.652 344.055 276.398C343.911 275.145 343.786 273.731 343.679 272.155C343.607 270.58 343.571 268.897 343.571 267.106C343.571 266.14 343.589 264.886 343.625 263.347C343.661 261.807 343.732 260.16 343.84 258.405C343.947 256.615 344.073 254.825 344.216 253.034C344.395 251.208 344.592 249.579 344.807 248.146C345.057 246.678 345.344 245.497 345.666 244.602C345.988 243.671 346.364 243.205 346.794 243.205C347.08 243.205 347.582 243.295 348.298 243.474C349.014 243.617 349.748 243.688 350.5 243.688C351.61 243.688 352.38 243.599 352.81 243.42C353.275 243.205 353.615 243.098 353.83 243.098C354.188 243.098 354.367 243.402 354.367 244.011C354.367 244.19 354.367 244.369 354.367 244.548C354.367 244.691 354.331 244.87 354.26 245.085C354.224 245.3 354.134 245.855 353.991 246.75C353.884 247.645 353.741 248.791 353.562 250.188C353.382 251.584 353.203 253.16 353.024 254.914C352.845 256.633 352.666 258.441 352.487 260.339C352.344 262.237 352.219 264.152 352.111 266.086C352.004 268.02 351.95 269.864 351.95 271.618C351.95 272.8 351.968 273.981 352.004 275.163C352.076 276.345 352.183 277.419 352.326 278.386C352.469 279.353 352.666 280.14 352.917 280.749C353.168 281.322 353.472 281.608 353.83 281.608C354.152 281.608 354.6 281.465 355.173 281.179C355.782 280.856 356.48 280.23 357.268 279.299C358.091 278.368 358.986 277.043 359.953 275.324C360.92 273.605 361.958 271.332 363.068 268.503C364.214 265.638 365.396 262.147 366.613 258.029C367.867 253.876 369.138 248.934 370.427 243.205C370.427 243.098 370.48 243.026 370.588 242.99C370.731 242.919 370.892 242.883 371.071 242.883C371.537 242.883 372.128 242.937 372.844 243.044C373.56 243.116 374.24 243.241 374.885 243.42C375.565 243.563 376.138 243.742 376.604 243.957C377.105 244.172 377.355 244.405 377.355 244.655C377.355 246.267 377.284 248.021 377.141 249.919C376.997 251.817 376.836 253.786 376.657 255.827C376.478 257.832 376.317 259.891 376.174 262.004C376.031 264.117 375.959 266.211 375.959 268.288C375.959 272.012 376.066 275.575 376.281 278.977C376.532 282.342 376.854 285.243 377.248 287.678ZM401.633 224.836C401.633 225.051 401.597 225.624 401.525 226.555C401.454 227.45 401.346 228.649 401.203 230.153C401.096 231.657 400.952 233.412 400.773 235.417C400.594 237.386 400.415 239.517 400.236 241.809C402.492 241.522 404.623 241.307 406.628 241.164C408.669 240.985 410.388 240.896 411.784 240.896C412.25 240.896 412.661 240.985 413.02 241.164C413.378 241.343 413.664 241.558 413.879 241.809C414.13 242.023 414.326 242.274 414.47 242.561C414.613 242.811 414.702 243.026 414.738 243.205C414.738 243.384 414.756 243.563 414.792 243.742C414.828 243.885 414.846 244.047 414.846 244.226C414.846 244.942 414.523 245.658 413.879 246.374C413.27 247.09 412.339 247.538 411.086 247.717L399.646 248.952C399.466 251.53 399.305 254.18 399.162 256.901C399.019 259.623 398.876 262.344 398.732 265.065C398.625 267.751 398.535 270.401 398.464 273.015C398.392 275.629 398.356 278.099 398.356 280.427C398.356 281.931 398.392 283.148 398.464 284.079C398.535 285.01 398.571 285.619 398.571 285.905C398.571 286.514 398.446 287.123 398.195 287.731C397.98 288.304 397.712 288.824 397.39 289.289C397.103 289.79 396.781 290.184 396.423 290.471C396.101 290.793 395.832 290.954 395.617 290.954C394.328 290.954 393.308 290.542 392.556 289.719C391.804 288.931 391.231 287.857 390.837 286.496C390.479 285.135 390.246 283.578 390.139 281.823C390.031 280.069 389.978 278.243 389.978 276.345C389.978 271.869 390.103 267.393 390.354 262.917C390.604 258.405 390.962 254.073 391.428 249.919L384.714 250.725C384.606 250.725 384.499 250.743 384.392 250.778C384.284 250.814 384.159 250.832 384.016 250.832C383.335 250.832 382.798 250.671 382.404 250.349C381.975 250.026 381.652 249.65 381.438 249.221C381.223 248.791 381.097 248.361 381.062 247.932C380.99 247.466 380.954 247.108 380.954 246.857C380.954 246.356 381.026 245.891 381.169 245.461C381.312 245.031 381.581 244.763 381.975 244.655C382.727 244.369 384.034 244.064 385.896 243.742C387.793 243.384 389.924 243.026 392.287 242.668C392.681 239.768 393.075 237.118 393.469 234.719C393.898 232.284 394.31 230.189 394.704 228.435C395.098 226.644 395.456 225.266 395.778 224.299C396.136 223.296 396.441 222.795 396.691 222.795C396.763 222.795 396.853 222.813 396.96 222.849C397.067 222.884 397.157 222.902 397.229 222.902C397.443 222.902 397.604 222.795 397.712 222.58C397.855 222.329 398.106 222.204 398.464 222.204C398.786 222.204 399.126 222.312 399.484 222.526C399.878 222.705 400.218 222.938 400.505 223.225C400.827 223.511 401.096 223.815 401.311 224.138C401.525 224.424 401.633 224.657 401.633 224.836ZM428.273 217.907C428.309 218.623 428.273 219.429 428.166 220.324C428.094 221.184 427.951 222.025 427.736 222.849C427.557 223.672 427.289 224.406 426.931 225.051C426.608 225.695 426.215 226.143 425.749 226.394C424.567 227.002 423.529 227.307 422.634 227.307C421.918 227.307 421.291 227.146 420.754 226.823C420.253 226.465 419.751 226.071 419.25 225.642C418.534 225.069 417.925 224.317 417.424 223.386C416.958 222.455 416.726 221.56 416.726 220.7C416.726 220.02 416.833 219.196 417.048 218.229C417.299 217.227 417.603 216.26 417.961 215.329C418.319 214.398 418.695 213.557 419.089 212.805C419.519 212.017 419.93 211.48 420.324 211.193C420.933 210.692 421.488 210.424 421.989 210.388C422.526 210.316 422.956 210.334 423.278 210.441C424.066 210.62 424.764 210.853 425.373 211.14C425.982 211.39 426.483 211.802 426.877 212.375C427.307 212.912 427.629 213.628 427.844 214.523C428.059 215.419 428.202 216.547 428.273 217.907ZM423.869 241.916C424.048 242.095 424.174 242.686 424.245 243.688C424.353 244.691 424.406 245.998 424.406 247.609C424.406 248.684 424.388 249.847 424.353 251.101C424.317 252.354 424.263 253.643 424.191 254.968C424.156 256.293 424.102 257.635 424.03 258.996C423.959 260.321 423.905 261.592 423.869 262.81C423.762 264.815 423.69 266.677 423.654 268.396C423.654 270.078 423.654 271.708 423.654 273.283C423.654 275.36 423.672 277.258 423.708 278.977C423.744 280.695 423.762 282.128 423.762 283.273C423.762 284.527 423.708 285.493 423.601 286.174C423.529 286.818 423.35 287.176 423.063 287.248C422.741 287.32 422.473 287.481 422.258 287.731C422.043 287.946 421.846 288.161 421.667 288.376C421.488 288.591 421.273 288.77 421.022 288.913C420.808 289.092 420.539 289.146 420.217 289.074C420.038 289.038 419.733 288.877 419.304 288.591C418.874 288.304 418.409 287.964 417.907 287.57C417.442 287.141 416.994 286.657 416.564 286.12C416.135 285.583 415.848 285.028 415.705 284.455C415.633 284.169 415.562 283.596 415.49 282.736C415.454 281.877 415.419 280.839 415.383 279.621C415.347 278.404 415.311 277.061 415.275 275.593C415.24 274.089 415.204 272.585 415.168 271.081C415.168 269.541 415.168 268.037 415.168 266.569C415.168 265.101 415.168 263.776 415.168 262.595C415.168 260.769 415.222 258.907 415.329 257.009C415.472 255.111 415.616 253.339 415.759 251.691C415.938 250.044 416.099 248.612 416.242 247.395C416.421 246.141 416.547 245.264 416.618 244.763C416.761 243.903 416.905 243.241 417.048 242.775C417.227 242.274 417.406 241.916 417.585 241.701C417.8 241.486 417.997 241.361 418.176 241.325C418.391 241.254 418.605 241.2 418.82 241.164C419.25 241.092 419.733 241.075 420.271 241.11C420.843 241.146 421.381 241.2 421.882 241.271C422.383 241.343 422.813 241.451 423.171 241.594C423.565 241.701 423.798 241.809 423.869 241.916ZM470.49 265.334C470.49 269.094 469.935 272.478 468.825 275.485C467.751 278.493 466.265 281.053 464.367 283.166C462.505 285.279 460.339 286.908 457.868 288.054C455.397 289.2 452.784 289.772 450.026 289.772C448.881 289.772 447.627 289.629 446.267 289.343C444.906 289.092 443.545 288.662 442.185 288.054C440.824 287.445 439.499 286.639 438.21 285.637C436.921 284.634 435.775 283.399 434.772 281.931C433.77 280.463 432.964 278.744 432.355 276.774C431.783 274.805 431.514 272.531 431.55 269.953C431.55 267.017 431.908 264.349 432.624 261.95C433.34 259.515 434.253 257.349 435.363 255.451C436.509 253.518 437.798 251.853 439.23 250.456C440.663 249.06 442.095 247.896 443.527 246.965C444.96 245.998 446.338 245.282 447.663 244.816C448.988 244.351 450.134 244.082 451.101 244.011C451.602 243.975 451.817 244.029 451.745 244.172C451.709 244.315 451.584 244.476 451.369 244.655C451.154 244.834 450.957 245.013 450.778 245.192C450.635 245.371 450.707 245.479 450.993 245.515C451.244 245.586 451.441 245.658 451.584 245.729C451.763 245.801 451.942 245.891 452.121 245.998L452.551 245.515C452.801 245.336 453.034 245.246 453.249 245.246C453.5 245.246 453.715 245.282 453.894 245.354C454.073 245.389 454.216 245.407 454.323 245.407C454.431 245.407 454.502 245.3 454.538 245.085C454.61 244.691 454.735 244.476 454.914 244.44C455.129 244.369 455.594 244.333 456.311 244.333C456.74 244.333 457.385 244.458 458.244 244.709C459.139 244.96 460.106 245.389 461.145 245.998C462.219 246.607 463.293 247.43 464.367 248.469C465.477 249.471 466.48 250.76 467.375 252.336C468.306 253.876 469.058 255.72 469.631 257.868C470.204 260.017 470.49 262.505 470.49 265.334ZM451.101 249.597C449.847 250.349 448.612 251.369 447.395 252.658C446.177 253.947 445.067 255.433 444.064 257.116C443.098 258.799 442.31 260.679 441.701 262.756C441.092 264.833 440.788 267.017 440.788 269.309C440.788 271.779 441.003 274.017 441.433 276.022C441.898 278.028 442.561 279.746 443.42 281.179C444.279 282.575 445.318 283.667 446.535 284.455C447.788 285.207 449.203 285.583 450.778 285.583C452.175 285.583 453.553 285.189 454.914 284.401C456.311 283.614 457.546 282.432 458.62 280.856C459.694 279.281 460.554 277.329 461.198 275.002C461.879 272.674 462.219 269.971 462.219 266.892C462.219 263.776 461.807 261.162 460.983 259.05C460.16 256.937 459.229 255.236 458.19 253.947C457.188 252.622 456.221 251.691 455.29 251.154C454.359 250.581 453.786 250.295 453.571 250.295C453.07 250.295 452.676 250.295 452.39 250.295C452.139 250.295 451.709 250.062 451.101 249.597ZM511.096 285.69C511.096 286.12 510.935 286.604 510.612 287.141C510.326 287.642 509.896 287.893 509.323 287.893C509.001 287.893 508.75 287.803 508.571 287.624C508.392 287.445 508.213 287.355 508.034 287.355C507.784 287.355 507.533 287.445 507.282 287.624C507.067 287.803 506.691 287.893 506.154 287.893C505.438 287.893 504.812 287.642 504.274 287.141C503.773 286.604 503.361 285.941 503.039 285.153C502.717 284.33 502.466 283.452 502.287 282.521C502.144 281.555 502.072 280.66 502.072 279.836C502.072 278.225 502.126 276.398 502.233 274.357C502.377 272.281 502.52 270.168 502.663 268.02C502.842 265.835 502.985 263.669 503.093 261.521C503.236 259.372 503.308 257.385 503.308 255.559C503.308 253.124 503.146 251.226 502.824 249.865C502.502 248.505 501.929 247.824 501.105 247.824C500.318 247.932 499.512 248.612 498.688 249.865C497.865 251.118 497.023 252.73 496.164 254.699C495.305 256.633 494.463 258.835 493.64 261.306C492.816 263.741 492.01 266.247 491.223 268.825C490.471 271.368 489.755 273.856 489.074 276.291C488.394 278.69 487.785 280.839 487.248 282.736C486.711 284.634 486.245 286.174 485.852 287.355C485.458 288.501 485.189 289.074 485.046 289.074C484.759 289.074 484.545 289.003 484.401 288.859C484.258 288.752 484.115 288.627 483.972 288.483C483.864 288.34 483.721 288.197 483.542 288.054C483.363 287.946 483.094 287.893 482.736 287.893C482.414 287.893 482.199 287.928 482.092 288C481.984 288.072 481.859 288.161 481.716 288.269C481.573 288.376 481.394 288.465 481.179 288.537C480.964 288.609 480.588 288.645 480.051 288.645C479.406 288.645 478.762 288.483 478.117 288.161C477.508 287.839 477.204 287.338 477.204 286.657C477.204 286.228 477.276 285.35 477.419 284.025C477.562 282.665 477.723 281.018 477.902 279.084C478.117 277.115 478.332 274.93 478.547 272.531C478.798 270.096 479.012 267.59 479.191 265.012C479.406 262.434 479.585 259.855 479.729 257.277C479.872 254.699 479.943 252.246 479.943 249.919C479.943 248.773 479.925 247.717 479.89 246.75C479.854 245.747 479.836 244.799 479.836 243.903C479.836 243.688 479.943 243.581 480.158 243.581C480.588 243.581 480.91 243.671 481.125 243.85C481.376 243.993 481.555 244.154 481.662 244.333C481.77 244.512 481.823 244.691 481.823 244.87C481.859 245.013 481.895 245.085 481.931 245.085C482.038 245.085 482.163 245.031 482.307 244.924C482.45 244.781 482.593 244.637 482.736 244.494C482.915 244.351 483.076 244.226 483.22 244.118C483.363 243.975 483.488 243.903 483.596 243.903H484.133C484.67 243.903 485.046 243.832 485.261 243.688C485.476 243.509 485.619 243.33 485.69 243.151C485.798 242.937 485.869 242.757 485.905 242.614C485.941 242.435 486.049 242.346 486.228 242.346C486.335 242.346 486.478 242.435 486.657 242.614C486.872 242.757 487.069 243.026 487.248 243.42C487.463 243.778 487.642 244.261 487.785 244.87C487.928 245.479 488 246.213 488 247.072C488 248.218 487.946 249.668 487.839 251.423C487.767 253.177 487.66 255.057 487.517 257.062C487.409 259.032 487.302 261.037 487.194 263.078C487.087 265.083 487.015 266.91 486.979 268.557C487.373 267.017 487.839 265.316 488.376 263.454C488.949 261.556 489.593 259.641 490.31 257.707C491.062 255.773 491.867 253.894 492.727 252.067C493.586 250.205 494.517 248.558 495.52 247.126C496.522 245.694 497.578 244.548 498.688 243.688C499.799 242.793 500.962 242.346 502.18 242.346C504.113 242.346 505.689 242.704 506.906 243.42C508.16 244.136 509.144 245.121 509.86 246.374C510.576 247.627 511.06 249.095 511.311 250.778C511.597 252.461 511.74 254.27 511.74 256.203C511.74 257.85 511.669 259.587 511.525 261.413C511.382 263.203 511.221 265.012 511.042 266.838C510.899 268.628 510.756 270.401 510.612 272.155C510.505 273.91 510.451 275.557 510.451 277.097C510.451 278.994 510.559 280.713 510.773 282.253C510.988 283.757 511.096 284.903 511.096 285.69ZM554.387 245.783C554.494 245.998 554.548 246.213 554.548 246.428C554.584 246.643 554.602 246.893 554.602 247.18C554.602 248.326 553.993 249.525 552.775 250.778C551.594 252.032 549.714 253.177 547.136 254.216C546.599 254.431 546.115 254.538 545.686 254.538C545.148 254.538 544.683 254.395 544.289 254.108C543.931 253.786 543.752 253.464 543.752 253.142C543.752 252.927 543.877 252.676 544.128 252.39C544.414 252.103 544.701 251.817 544.987 251.53C545.31 251.244 545.596 250.975 545.847 250.725C546.133 250.474 546.276 250.277 546.276 250.134C546.276 249.847 546.044 249.704 545.578 249.704C544.862 249.704 543.949 249.919 542.839 250.349C541.729 250.743 540.547 251.28 539.294 251.96C538.076 252.604 536.823 253.321 535.534 254.108C534.281 254.86 533.153 255.612 532.15 256.364C531.148 257.08 530.324 257.725 529.68 258.298C529.071 258.871 528.767 259.283 528.767 259.533C528.767 259.676 528.91 259.748 529.196 259.748H530.754C531.721 259.748 532.956 259.802 534.46 259.909C536 260.017 537.611 260.231 539.294 260.554C540.977 260.84 542.66 261.27 544.343 261.843C546.062 262.38 547.583 263.114 548.908 264.045C550.269 264.976 551.379 266.104 552.238 267.429C553.098 268.754 553.527 270.329 553.527 272.155C553.527 273.086 553.366 274.089 553.044 275.163C552.757 276.201 552.22 277.276 551.433 278.386C550.681 279.46 549.642 280.57 548.317 281.716C546.993 282.826 545.31 283.936 543.269 285.046C540.189 286.693 537.307 287.91 534.621 288.698C531.971 289.486 529.572 289.88 527.424 289.88C524.631 289.88 522.429 289.253 520.817 288C519.206 286.747 518.4 284.956 518.4 282.629C518.4 280.91 518.723 279.442 519.367 278.225C520.048 277.007 520.835 276.005 521.73 275.217C522.626 274.393 523.521 273.802 524.416 273.444C525.311 273.05 525.992 272.836 526.457 272.8C526.672 272.8 526.851 272.782 526.994 272.746C527.173 272.71 527.352 272.692 527.531 272.692C527.854 272.692 528.015 272.889 528.015 273.283V273.82C528.015 274.035 528.068 274.232 528.176 274.411C528.283 274.554 528.337 274.715 528.337 274.895C528.337 275.109 528.068 275.432 527.531 275.861C527.03 276.291 526.475 276.792 525.866 277.365C525.257 277.938 524.685 278.547 524.147 279.191C523.646 279.836 523.396 280.463 523.396 281.071C523.396 281.787 523.968 282.146 525.114 282.146C526.547 282.146 528.05 281.877 529.626 281.34C531.237 280.767 532.795 280.051 534.299 279.191C535.839 278.332 537.289 277.365 538.649 276.291C540.046 275.181 541.263 274.107 542.302 273.068C543.34 272.03 544.164 271.063 544.772 270.168C545.381 269.237 545.686 268.503 545.686 267.966C545.686 267.321 545.31 266.802 544.558 266.408C543.841 266.014 542.839 265.692 541.55 265.441C540.297 265.191 538.828 265.03 537.146 264.958C535.463 264.851 533.69 264.797 531.828 264.797C529.895 264.797 528.283 264.886 526.994 265.065C525.741 265.244 524.971 265.334 524.685 265.334C524.47 265.334 524.112 265.316 523.61 265.28C523.145 265.209 522.661 265.048 522.16 264.797C521.695 264.51 521.283 264.099 520.925 263.562C520.567 263.024 520.388 262.255 520.388 261.252C520.388 260.572 520.531 259.802 520.817 258.942C521.14 258.083 521.677 257.17 522.429 256.203C523.216 255.201 524.273 254.126 525.598 252.98C526.958 251.835 528.677 250.635 530.754 249.382C532.938 248.057 534.979 246.983 536.877 246.159C538.811 245.3 540.547 244.637 542.087 244.172C543.662 243.706 545.041 243.402 546.223 243.259C547.404 243.08 548.335 242.99 549.016 242.99C550.627 242.99 551.826 243.205 552.614 243.635C553.402 244.029 553.993 244.745 554.387 245.783Z" fill="#1A5478"/>
</svg>